<svg id="Layer_1" data-name="Layer 1" xmlns="http://www.w3.org/2000/svg" viewBox="0 0 1024 1024"><defs><style>.cls-1{fill:#43a1ff;}.cls-2{fill:#45caff;}.cls-3{fill:#1d8b3b;}.cls-4{fill:#44a93c;}.cls-10,.cls-5{fill:none;}.cls-5{stroke:#fff;stroke-miterlimit:10;stroke-width:10.82px;}.cls-6{fill:#e75257;}.cls-7{fill:#b0b0af;}.cls-8{fill:#cf3c44;}.cls-9{fill:#9a9b99;}.cls-11{fill:#ececed;opacity:0.3;}.cls-12{fill:#074154;}.cls-13{fill:#12b0e0;}</style></defs><rect class="cls-1" x="-1.14" y="-1.14" width="1026.27" height="1026.27" rx="513.13"/><rect class="cls-2" x="149.22" y="235.53" width="717.6" height="484.99" rx="14.41"/><path class="cls-3" d="M837.94,720.52H233.08V699.81Q360.16,578.09,487.34,456.36c25-23.86,67.82-23.34,92,1.24Q698.39,578.68,817.56,699.81C824.37,706.71,831.13,713.62,837.94,720.52Z"/><path class="cls-4" d="M713.41,720.52H149.77a.54.54,0,0,1-.55-.55V538.37L300.71,393.31c25-23.86,67.86-23.34,92,1.23Q511.76,515.62,630.93,636.75,672.21,678.62,713.41,720.52Z"/><rect class="cls-5" x="149.22" y="235.53" width="717.6" height="484.99" rx="13.93"/><rect class="cls-6" x="648.76" y="592.16" width="69.3" height="293.06" transform="matrix(0.85, -0.52, 0.52, 0.85, -284.03, 461.61)"/><path class="cls-7" d="M590.9,588.69A98.09,98.09,0,0,1,568,598.87l16.87,27.81,42.57-25.82-16.87-27.81A98.28,98.28,0,0,1,590.9,588.69Z"/><rect class="cls-8" x="690.93" y="580.37" width="23.83" height="293.06" transform="translate(-275.09 469.98) rotate(-31.24)"/><path class="cls-9" d="M599.83,582.56l15.53,25.59,12-7.3L610.52,573A97,97,0,0,1,599.83,582.56Z"/><path class="cls-7" d="M568,598.87l16.87,27.8,30.53-18.52-15.53-25.59a94.38,94.38,0,0,1-8.92,6.13c-2,1.23-4.08,2.37-6.14,3.44A98.84,98.84,0,0,1,568,598.87Z"/><path class="cls-10" d="M384.4,381.36c4.41,4.13,8.82,8.23,13.23,12.37"/><path class="cls-10" d="M588.45,571.93l11.38,10.63"/><path class="cls-11" d="M398.93,530.47a133.77,133.77,0,0,0,184,45c1.89-1.15,3.76-2.33,5.56-3.58,1-.68,1.95-1.35,2.93-2s1.89-1.36,2.81-2a2.31,2.31,0,0,0,.19-.14c.79-.61,1.57-1.19,2.33-1.81,1-.81,2-1.62,3-2.46a119,119,0,0,0,19.69-20.51c34.06-45.31,50.3-135.71-7.26-191.06-53.8-51.73-143.47-45.35-185-4a95.84,95.84,0,0,0-21.75,34.08,130.79,130.79,0,0,0-7.72,11.84A133.84,133.84,0,0,0,398.93,530.47Z"/><path class="cls-12" d="M383.81,539.65A151.7,151.7,0,0,0,617,571.77c67.11-62.59,68-178-23.12-240.68a134.07,134.07,0,0,0-94.2-22.19c-53.13,7.31-92.46,35.45-115.26,72.46A151.58,151.58,0,0,0,383.81,539.65Zm15.12-9.18a133.84,133.84,0,0,1-1.3-136.74,130.52,130.52,0,0,1,7.72-11.84c21.91-30,57.29-51.92,103.23-55.9a115.77,115.77,0,0,1,74.61,19.38c80.57,54.3,81.29,154.79,24.39,210.91q-3.76,3.71-7.86,7.14c-1,.84-2,1.65-3,2.46-.76.62-1.53,1.22-2.33,1.82-.06,0-.13.1-.19.13-.92.69-1.85,1.39-2.81,2s-1.93,1.39-2.93,2c-1.8,1.25-3.67,2.43-5.56,3.58a133.77,133.77,0,0,1-184-45Z"/><path class="cls-3" d="M208.47,689.52c-2,.24-5.29,2.06-7.14,2.85-1.64.7-4,1.69-6.28.85-1-.36-2.65-1.36-2.71-2.64s1.53-2.41,4.71-4.78c.69-.51.92-.65,1.29-.92,1.68-1.24,5.93-4.36,6.07-8.63a7.32,7.32,0,0,0-3.43-6.5,7.08,7.08,0,0,0-4.78-.57,10.21,10.21,0,0,0-4.14,2.07,20.54,20.54,0,0,0-6.06,6.56,16,16,0,0,0-2.5,7.2,14.56,14.56,0,0,0,1,6.64,11.89,11.89,0,0,0,8.35,7.42,16,16,0,0,0,6,.51,18,18,0,0,0,9.49-4.21c2.66-2,2.77-3.07,2.71-3.57a2.76,2.76,0,0,0-1.71-2.21A1.94,1.94,0,0,0,208.47,689.52ZM189.7,685c-1-.76.57-5.24,3.57-7.64.94-.74,2.83-2,3.57-1.42s-.2,3.23-.28,3.42a8.49,8.49,0,0,1-2.15,2.93C193.5,683.17,190.57,685.69,189.7,685Z"/><rect class="cls-3" x="186.71" y="654.39" width="4.23" height="12.3" rx="2.08" transform="translate(-231.57 117.18) rotate(-21.78)"/><rect class="cls-3" x="196.26" y="652.76" width="4.23" height="12.3" rx="2.08" transform="translate(96.3 -21.6) rotate(8.22)"/><rect class="cls-3" x="179.13" y="659.6" width="4.23" height="12.3" rx="2.08" transform="translate(816.4 935.29) rotate(128.22)"/><rect class="cls-3" x="175.41" y="667.9" width="4.23" height="12.3" rx="2.08" transform="translate(872.43 619.58) rotate(100.27)"/><rect class="cls-3" x="204.67" y="656.21" width="4.23" height="12.3" rx="2.08" transform="translate(430.83 5.64) rotate(36.18)"/><path class="cls-13" d="M755.18,285.26a5.23,5.23,0,0,1-1.14-3.21h0a9.31,9.31,0,0,1,2-5.34h0a14.17,14.17,0,0,1,4.22-3.91h0a6.61,6.61,0,0,1,3.08-1h0a3.77,3.77,0,0,1,.58,0h0a5.67,5.67,0,0,1,3.43,1.7h0a4.54,4.54,0,0,1,.41.48h0c.09-1,.2-2.31.3-3.64h0c.25-3.13.5-6.59.48-7.64h0c0-.09,0-.16,0-.19h0a7.8,7.8,0,0,1-.29-1.74h0a2,2,0,0,1,.23-1.05h0a1.28,1.28,0,0,1,1.1-.64h.05a2.6,2.6,0,0,1,2.63,2.56h0a2.72,2.72,0,0,1-.14.89h0v0h0a.84.84,0,0,1,0,.1h0c0,.09,0,.23-.06.39h0c-.05.33-.1.78-.16,1.32h0c-.11,1.08-.25,2.52-.37,4.1h0c-.23,2.9-.45,6.26-.51,8.78h0a2.92,2.92,0,0,1,.86.39h0a1.61,1.61,0,0,1,.62.87h0a3.35,3.35,0,0,1,.12.74h0a1.63,1.63,0,0,1-.33,1h0a1.92,1.92,0,0,1-.74.57h0c-.32.14-.63.24-.94.36h0a11.67,11.67,0,0,1,.18,1.73h0a4.58,4.58,0,0,1-.08,1h0a1.84,1.84,0,0,1-.49,1h0a1.28,1.28,0,0,1-.84.33h-.17a2.8,2.8,0,0,1-1.31-.45h0a2,2,0,0,1-.71-.94h0a4.16,4.16,0,0,1-.12-.44h0c-.55.36-1.29.81-2.13,1.27h0a14.72,14.72,0,0,1-6.23,2.05h0a4.08,4.08,0,0,1-3.39-1.48Zm4.37-7.54a8,8,0,0,0-2.06,4.4h0a1.17,1.17,0,0,0,.28.83h0a1.32,1.32,0,0,0,1,.36h0a8.72,8.72,0,0,0,3.6-1.33h0c1.28-.7,2.63-1.6,3.93-2.41h0c-.06-.27-.15-.63-.26-1h0a8,8,0,0,0-1.22-2.57h0a2,2,0,0,0-1.14-.78h0l-.3,0h0c-1,0-2.61,1.08-3.81,2.55ZM776,282.9a14.89,14.89,0,0,1-2-4.62h0a37.54,37.54,0,0,1-1.12-7.45h0c0-.1,0-.2,0-.29h0a2,2,0,0,1,.36-1.29h0a1.43,1.43,0,0,1,1.12-.56h0l.29,0h0a2,2,0,0,1,1.49,1h0a2.32,2.32,0,0,1,.29,1.12h0v0h0c0,.31,0,.61,0,.91h0a30.77,30.77,0,0,0,.56,5.83h0a7.68,7.68,0,0,0,1.26,3.22h0a1,1,0,0,0,.77.44h0a1.23,1.23,0,0,0,.5-.14h0a3.77,3.77,0,0,0,1.54-1.8h0a11.21,11.21,0,0,0,.83-2.91h0a26.25,26.25,0,0,0,.28-4.53h0v-.13h0a2.28,2.28,0,0,1,.25-1.2h0a1.75,1.75,0,0,1,1.53-.81h.12a1.61,1.61,0,0,1,1.08.44h0a2,2,0,0,1,.5.75h0a3.63,3.63,0,0,1,.24.94h0V272c-.05.42-.14,2.26-.45,4.35h0a18.82,18.82,0,0,1-1.91,6.34h0a4.53,4.53,0,0,1-3.09,2.42h0a4.32,4.32,0,0,1-.62.05h0A4.64,4.64,0,0,1,776,282.9Zm14.69,3.21-.29,0h0a2,2,0,0,1-1.41-.79h0a1.75,1.75,0,0,1-.32-.76h0l-.19-.05h0a1.68,1.68,0,0,1-1.07-.79h0l0,0,0,0a.76.76,0,0,1-.06-.22h0s0-.07,0-.1h0c0-.07,0-.15,0-.25h0c0-.19,0-.45,0-.77h0c0-.63-.06-1.5-.07-2.49h0c0-2.07,0-4.69.2-6.89h0a2.17,2.17,0,0,1-.54-1.18h0v0h0s0-.09,0-.14h0a1.76,1.76,0,0,1,.5-1.16h0a2.9,2.9,0,0,1,.6-.5h0c0-.1,0-.22.07-.35h0c.09-.44.22-1.05.34-1.76h0a27.77,27.77,0,0,0,.45-4.66h0v-.23h0a3.86,3.86,0,0,0-.16-.64h0a5,5,0,0,1-.2-1.14h0a1.69,1.69,0,0,1,.34-1.1h0a1.77,1.77,0,0,1,1.18-.59h0l.16,0h0a1.58,1.58,0,0,1,1,.39h0a3,3,0,0,1,.64.8h0a5.3,5.3,0,0,1,.61,2.4h0a2.09,2.09,0,0,1,0,.25h0a13.16,13.16,0,0,1-.31,2.93h0c-.16.8-.36,1.7-.57,2.95h0a14.58,14.58,0,0,1,4.08.56h0a6.72,6.72,0,0,1,4.36,3.38h0a2.79,2.79,0,0,1,.29,1.25h0a6,6,0,0,1-1,3h0a20.29,20.29,0,0,1-2.16,2.89h0a52.23,52.23,0,0,1-4.37,4.31h0l-.47.44h0a2.59,2.59,0,0,0-.33.42h0a1.68,1.68,0,0,1-.51.55h0a1.3,1.3,0,0,1-.65.18h0Zm-.22-8.57a36.34,36.34,0,0,0,.27,4.14h0c.35-.28.76-.62,1.19-1h0a23.49,23.49,0,0,0,3.67-3.86h0a4.33,4.33,0,0,0,1-2.23h0a1.19,1.19,0,0,0-.1-.45h0a3,3,0,0,0-1.75-1.09h0a10.69,10.69,0,0,0-3.14-.43h0l-.68,0h0c0,.24-.09.55-.14.91h0a28.46,28.46,0,0,0-.29,3.23h0c0,.25,0,.5,0,.74Zm12.9,9.33a2.32,2.32,0,0,1-1.27-.44h0a1.43,1.43,0,0,1-.56-.85h0a5.94,5.94,0,0,1-.19-1h0c-.09-.76-.14-1.75-.16-2.9h0c-.06-4.45.33-11.34.58-15.34h0c.11-2,.19-3.77.27-5.12h0a14.5,14.5,0,0,1,.35-2.94h0a1.42,1.42,0,0,1,.33-.61h0a1.86,1.86,0,0,1,1.25-.56h0a2.32,2.32,0,0,1,1.6.79h0a2,2,0,0,1,.42.7h0a2.69,2.69,0,0,1,.12.87h0a34.91,34.91,0,0,1-.32,3.54h0c-.2,1.78-.48,4.31-.8,8h0c-.24,2.87-.34,5.8-.31,8.33h0c0,1.65.11,3.13.24,4.32h0v0h0c0,.16,0,.36,0,.59h0a5.14,5.14,0,0,1-.08,1.08h0a2.06,2.06,0,0,1-.54,1.15h0a1.43,1.43,0,0,1-1,.41h0Zm5.68-2.52.33-.72-.33.72a5.24,5.24,0,0,1-2.16-2.21h0a7.9,7.9,0,0,1-1-3.7h0a7.66,7.66,0,0,1,.56-3h0a17.38,17.38,0,0,1,3-5.2h0a5.36,5.36,0,0,1,3.36-1.92h0l.3,0h0a5.31,5.31,0,0,1,3.25,1.2h0a7,7,0,0,1,2.5,4.41h0a8.61,8.61,0,0,1,.14,1.49h0a9.07,9.07,0,0,1-2.89,6.7h0a8.6,8.6,0,0,1-5.46,2.57h0a3.56,3.56,0,0,1-1.59-.31Zm4.39-12.43a1.34,1.34,0,0,0-.26.09h0a3.82,3.82,0,0,0-1,.64h0a9.72,9.72,0,0,0-2.68,4.66h0a3.82,3.82,0,0,0-.13,1h0a4.72,4.72,0,0,0,.41,1.85h0a1.65,1.65,0,0,0,.91,1h0a.91.91,0,0,0,.3,0h0a4,4,0,0,0,2.14-1h0a6,6,0,0,0,1.61-1.9h0v0a7.35,7.35,0,0,0,.85-3.23h0a4.37,4.37,0,0,0-.47-1.91h0a2.57,2.57,0,0,0-.64-1h0a1.67,1.67,0,0,0-.64-.29h0l-.37.06h0l0,0Zm-.22-.19.06-.59-.06.59Zm-71.89,6.07a12.76,12.76,0,0,1,2.31-2.75A15.17,15.17,0,0,1,750,272l1.11.09a4.75,4.75,0,0,1,2.5,1.15,2.8,2.8,0,0,1,.61,2.85,4.85,4.85,0,0,1-2.35,3.14,11,11,0,0,1-4.22,1.57q-2.29.36-2.52.84c-.16.33,0,.73.58,1.2a9.34,9.34,0,0,0,3.91,1.27,17.09,17.09,0,0,0,5.12.29,17.46,17.46,0,0,0,3.33-.69c.87-.29,1.82.62,2.3.55s.83.22,1,.86c-1,1.09-2.27.77-3.34,1.22a18.76,18.76,0,0,1-3.92,1.06,22.66,22.66,0,0,1-5.57.14l-1.3-.16a15.67,15.67,0,0,1-4.63-1.53,5.49,5.49,0,0,1-1.72-1.66,5.28,5.28,0,0,1-.67-2.58A9.79,9.79,0,0,1,741.37,277.8Zm3.53,1.13a12.34,12.34,0,0,0,4.15-1.36c.73-.5,1.08-1,1-1.49s-.58-.55-1.64-.15a5.52,5.52,0,0,0-2.24,1.32A16.7,16.7,0,0,0,744.9,278.93Z"/><path class="cls-13" d="M812.62,297.64a15.81,15.81,0,0,1-8-3.79h0a1.25,1.25,0,0,1-.45-.92h0a1.62,1.62,0,0,1,0-.22h0a1.82,1.82,0,0,1,.52-1h0a1.91,1.91,0,0,1,1-.52h0l.21,0h0a1.5,1.5,0,0,1,1,.41h0a10.3,10.3,0,0,0,2.23,1.43h0a18.16,18.16,0,0,0,2.58,1h0a18.2,18.2,0,0,0,4,.7h0c.45,0,.89,0,1.33,0h0a15.52,15.52,0,0,0,2.72-.31h0a16,16,0,0,0,3.45-1.11h0a7.86,7.86,0,0,0,3.5-4h0a20.81,20.81,0,0,0,1-6.62h0a10.45,10.45,0,0,1-.7.91h0a8.14,8.14,0,0,1-1.48,1.33h0a5.57,5.57,0,0,1-2.25.94h0a2.71,2.71,0,0,1-.4,0h0a2.27,2.27,0,0,1-1.06-.22h0a3.7,3.7,0,0,1-1.13-.77h0a5.51,5.51,0,0,1-1.53-3.57h0c0-.13,0-.26,0-.39h0a9.49,9.49,0,0,1,.7-3.73h0a24.8,24.8,0,0,1,1.92-3.78h0c.18-.28.51-.75,1-1.4h0a16.23,16.23,0,0,1,1.8-2h0a10.66,10.66,0,0,1,2.27-1.61h0a3.62,3.62,0,0,1,1.62-.44h0a3,3,0,0,1,.89.1h0a1.59,1.59,0,0,1,.49.23h0a.58.58,0,0,1,.23.44h0a.22.22,0,0,1,0,.09h0a1.49,1.49,0,0,1-.4.79h.13a2.55,2.55,0,0,1,.54,0h0c.94.13,1.56.68,1.57,1.5h0v.14h0c-.11,2.22-.21,4.43-.32,6.65h0c-.1,2.23-.32,4.44-.55,6.64h0a24.88,24.88,0,0,1-1.1,5.58h0a10.6,10.6,0,0,1-1.11,2.37h0a10,10,0,0,1-3.07,2.95h0a15,15,0,0,1-4,1.78h0a19,19,0,0,1-4.6.67h0a22.24,22.24,0,0,1-4.54-.37Zm15.3-26.33a6.68,6.68,0,0,0-.71.77h0l-.75.94h0a10.73,10.73,0,0,0-1.23,1.87h0c-.32.64-.64,1.3-1,2h0a10,10,0,0,0-1.2,4.14h0v0h0a4.63,4.63,0,0,0,.16,1.16h0c.09.24.17.33.24.35h0l.06,0h0a1.2,1.2,0,0,0,.2-.17h0a5.39,5.39,0,0,0,.6-.78h0a20.24,20.24,0,0,0,1.75-3.4h0a29.59,29.59,0,0,0,1.24-3.61h0c.33-1.2.67-2.41,1-3.61h0c-.16.13-.3.26-.42.37Z"/><path class="cls-13" d="M835.53,285.44a8.14,8.14,0,0,1-2.68-2.43h0a1.18,1.18,0,0,1-.24-.69h0a1.41,1.41,0,0,1,.09-.49h0a2.22,2.22,0,0,1,.69-1h0a2.11,2.11,0,0,1,1.06-.46h.14a1.13,1.13,0,0,1,.95.48h0a5.6,5.6,0,0,0,1.62,1.46h0a1.17,1.17,0,0,0,.67.22h0a1,1,0,0,0,.76-.42h0a.33.33,0,0,0,0-.06h0a1.08,1.08,0,0,1,.07-.18h0a2,2,0,0,0,.11-.78h0v0h0a3.61,3.61,0,0,0-.3-1.2h0a4.1,4.1,0,0,0-1.19-1.46h0c-.33-.26-.67-.51-1-.75h0a4.45,4.45,0,0,1-1-.9h0a3.77,3.77,0,0,1-.93-2.42h0a4.25,4.25,0,0,1,0-.79h0a5.08,5.08,0,0,1,2-3.36h0a8.83,8.83,0,0,1,3.44-1.74h0l.27,0h0a1,1,0,0,1,.8.34h0a1.19,1.19,0,0,1,.33.79h0a1.1,1.1,0,0,1,0,.25h0a2.07,2.07,0,0,1-1.28,1.59h0a5.56,5.56,0,0,0-1,.59h0a3.86,3.86,0,0,0-.91.89h0a1.84,1.84,0,0,0-.39,1h0v.08h0a1,1,0,0,0,.47.78h0a13.87,13.87,0,0,0,1.15.87h0a5.54,5.54,0,0,1,1.14,1h0a11.83,11.83,0,0,1,1.18,1.64h0a5,5,0,0,1,.69,1.95h0c0,.22,0,.44,0,.66h0a5.93,5.93,0,0,1-.57,2.68h0a4.18,4.18,0,0,1-2.55,2.22h0a4.68,4.68,0,0,1-1.44.27h0a4.14,4.14,0,0,1-2.2-.57Zm3.3-3.25v0Zm-.1-.08-.06-.06.06.06Z"/><path class="cls-13" d="M831.81,262.59c.25-.39.52-.75,1.07-.69a.83.83,0,0,1,.77.88,1.72,1.72,0,0,1-.31.77l-1.4,2.22c-.25.39-.52.75-1.07.69a.82.82,0,0,1-.77-.88,1.68,1.68,0,0,1,.3-.77Z"/><path class="cls-13" d="M826.73,262.29c0-.46,0-.91.44-1.2a.81.81,0,0,1,1.14.24,1.7,1.7,0,0,1,.22.8l.21,2.62c0,.46,0,.91-.43,1.2a.83.83,0,0,1-1.15-.24,1.83,1.83,0,0,1-.22-.8Z"/><path class="cls-13" d="M822.53,263.78a1.15,1.15,0,0,1-.06-1.28.83.83,0,0,1,1.15-.23,1.73,1.73,0,0,1,.51.65l1.22,2.34a1.13,1.13,0,0,1,.06,1.27.83.83,0,0,1-1.15.23,1.73,1.73,0,0,1-.51-.65Z"/><path class="cls-13" d="M822.49,267.17c.39.23.76.48.73,1a.83.83,0,0,1-.84.81,1.73,1.73,0,0,1-.78-.27l-2.28-1.31c-.39-.23-.76-.49-.73-1a.82.82,0,0,1,.84-.81,1.61,1.61,0,0,1,.78.27Z"/><path class="cls-13" d="M835.33,265.4a1.11,1.11,0,0,1,1.25-.2.84.84,0,0,1,.35,1.13,1.7,1.7,0,0,1-.59.57l-2.18,1.47a1.12,1.12,0,0,1-1.26.19.83.83,0,0,1-.34-1.12,1.66,1.66,0,0,1,.58-.58Z"/></svg>